<?xml version="1.0" encoding="UTF-8" standalone="no"?>
<!DOCTYPE svg PUBLIC "-//W3C//DTD SVG 1.1//EN"
 "http://www.w3.org/Graphics/SVG/1.1/DTD/svg11.dtd">
<!-- Generated by graphviz version 2.43.0 (0)
 -->
<!-- Title: %3 Pages: 1 -->
<svg width="1326pt" height="128pt"
 viewBox="0.00 0.00 1326.00 128.00" xmlns="http://www.w3.org/2000/svg" xmlns:xlink="http://www.w3.org/1999/xlink">
<g id="graph0" class="graph" transform="scale(1 1) rotate(0) translate(4 124)">
<title>%3</title>
<polygon fill="white" stroke="transparent" points="-4,4 -4,-124 1322,-124 1322,4 -4,4"/>
<!-- 133737831763984 -->
<g id="node1" class="node">
<title>133737831763984</title>
<polygon fill="none" stroke="black" points="1086,-27.5 1086,-63.5 1318,-63.5 1318,-27.5 1086,-27.5"/>
<text text-anchor="middle" x="1099" y="-41.8" font-family="Times,serif" font-size="14.00">L</text>
<polyline fill="none" stroke="black" points="1112,-27.5 1112,-63.5 "/>
<text text-anchor="middle" x="1163" y="-41.8" font-family="Times,serif" font-size="14.00">data 8.0000</text>
<polyline fill="none" stroke="black" points="1214,-27.5 1214,-63.5 "/>
<text text-anchor="middle" x="1266" y="-41.8" font-family="Times,serif" font-size="14.00">grad 0.0000</text>
</g>
<!-- 133737831763984* -->
<g id="node2" class="node">
<title>133737831763984*</title>
<ellipse fill="none" stroke="black" cx="1023" cy="-45.5" rx="27" ry="18"/>
<text text-anchor="middle" x="1023" y="-41.8" font-family="Times,serif" font-size="14.00">*</text>
</g>
<!-- 133737831763984*&#45;&gt;133737831763984 -->
<g id="edge1" class="edge">
<title>133737831763984*&#45;&gt;133737831763984</title>
<path fill="none" stroke="black" d="M1050.12,-45.5C1057.53,-45.5 1066.14,-45.5 1075.4,-45.5"/>
<polygon fill="black" stroke="black" points="1075.69,-49 1085.69,-45.5 1075.69,-42 1075.69,-49"/>
</g>
<!-- 133737832098320 -->
<g id="node3" class="node">
<title>133737832098320</title>
<polygon fill="none" stroke="black" points="363,-83.5 363,-119.5 602,-119.5 602,-83.5 363,-83.5"/>
<text text-anchor="middle" x="375" y="-97.8" font-family="Times,serif" font-size="14.00">c</text>
<polyline fill="none" stroke="black" points="387,-83.5 387,-119.5 "/>
<text text-anchor="middle" x="442.5" y="-97.8" font-family="Times,serif" font-size="14.00">data 10.0000</text>
<polyline fill="none" stroke="black" points="498,-83.5 498,-119.5 "/>
<text text-anchor="middle" x="550" y="-97.8" font-family="Times,serif" font-size="14.00">grad 0.0000</text>
</g>
<!-- 133737831775632+ -->
<g id="node9" class="node">
<title>133737831775632+</title>
<ellipse fill="none" stroke="black" cx="665" cy="-73.5" rx="27" ry="18"/>
<text text-anchor="middle" x="665" y="-69.8" font-family="Times,serif" font-size="14.00">+</text>
</g>
<!-- 133737832098320&#45;&gt;133737831775632+ -->
<g id="edge8" class="edge">
<title>133737832098320&#45;&gt;133737831775632+</title>
<path fill="none" stroke="black" d="M599.6,-83.49C609.91,-81.89 619.74,-80.37 628.46,-79.01"/>
<polygon fill="black" stroke="black" points="629.18,-82.44 638.52,-77.45 628.1,-75.53 629.18,-82.44"/>
</g>
<!-- 133737832098384 -->
<g id="node4" class="node">
<title>133737832098384</title>
<polygon fill="none" stroke="black" points="3,-56.5 3,-92.5 234,-92.5 234,-56.5 3,-56.5"/>
<text text-anchor="middle" x="15.5" y="-70.8" font-family="Times,serif" font-size="14.00">a</text>
<polyline fill="none" stroke="black" points="28,-56.5 28,-92.5 "/>
<text text-anchor="middle" x="79" y="-70.8" font-family="Times,serif" font-size="14.00">data 2.0000</text>
<polyline fill="none" stroke="black" points="130,-56.5 130,-92.5 "/>
<text text-anchor="middle" x="182" y="-70.8" font-family="Times,serif" font-size="14.00">grad 0.0000</text>
</g>
<!-- 133737832097040* -->
<g id="node6" class="node">
<title>133737832097040*</title>
<ellipse fill="none" stroke="black" cx="300" cy="-46.5" rx="27" ry="18"/>
<text text-anchor="middle" x="300" y="-42.8" font-family="Times,serif" font-size="14.00">*</text>
</g>
<!-- 133737832098384&#45;&gt;133737832097040* -->
<g id="edge4" class="edge">
<title>133737832098384&#45;&gt;133737832097040*</title>
<path fill="none" stroke="black" d="M234.2,-56.61C244.76,-54.96 254.83,-53.39 263.74,-52"/>
<polygon fill="black" stroke="black" points="264.3,-55.46 273.64,-50.46 263.22,-48.54 264.3,-55.46"/>
</g>
<!-- 133737832097040 -->
<g id="node5" class="node">
<title>133737832097040</title>
<polygon fill="none" stroke="black" points="364.5,-28.5 364.5,-64.5 600.5,-64.5 600.5,-28.5 364.5,-28.5"/>
<text text-anchor="middle" x="377" y="-42.8" font-family="Times,serif" font-size="14.00">e</text>
<polyline fill="none" stroke="black" points="389.5,-28.5 389.5,-64.5 "/>
<text text-anchor="middle" x="443" y="-42.8" font-family="Times,serif" font-size="14.00">data &#45;6.0000</text>
<polyline fill="none" stroke="black" points="496.5,-28.5 496.5,-64.5 "/>
<text text-anchor="middle" x="548.5" y="-42.8" font-family="Times,serif" font-size="14.00">grad 0.0000</text>
</g>
<!-- 133737832097040&#45;&gt;133737831775632+ -->
<g id="edge5" class="edge">
<title>133737832097040&#45;&gt;133737831775632+</title>
<path fill="none" stroke="black" d="M600.62,-64.02C610.5,-65.5 619.9,-66.9 628.3,-68.16"/>
<polygon fill="black" stroke="black" points="627.95,-71.65 638.36,-69.66 628.99,-64.72 627.95,-71.65"/>
</g>
<!-- 133737832097040*&#45;&gt;133737832097040 -->
<g id="edge2" class="edge">
<title>133737832097040*&#45;&gt;133737832097040</title>
<path fill="none" stroke="black" d="M327.25,-46.5C335.09,-46.5 344.27,-46.5 354.17,-46.5"/>
<polygon fill="black" stroke="black" points="354.28,-50 364.28,-46.5 354.28,-43 354.28,-50"/>
</g>
<!-- 133738102825744 -->
<g id="node7" class="node">
<title>133738102825744</title>
<polygon fill="none" stroke="black" points="0,-1.5 0,-37.5 237,-37.5 237,-1.5 0,-1.5"/>
<text text-anchor="middle" x="13" y="-15.8" font-family="Times,serif" font-size="14.00">b</text>
<polyline fill="none" stroke="black" points="26,-1.5 26,-37.5 "/>
<text text-anchor="middle" x="79.5" y="-15.8" font-family="Times,serif" font-size="14.00">data &#45;3.0000</text>
<polyline fill="none" stroke="black" points="133,-1.5 133,-37.5 "/>
<text text-anchor="middle" x="185" y="-15.8" font-family="Times,serif" font-size="14.00">grad 0.0000</text>
</g>
<!-- 133738102825744&#45;&gt;133737832097040* -->
<g id="edge9" class="edge">
<title>133738102825744&#45;&gt;133737832097040*</title>
<path fill="none" stroke="black" d="M237.23,-37.21C246.6,-38.62 255.52,-39.96 263.52,-41.16"/>
<polygon fill="black" stroke="black" points="263.06,-44.63 273.47,-42.66 264.1,-37.71 263.06,-44.63"/>
</g>
<!-- 133737831775632 -->
<g id="node8" class="node">
<title>133737831775632</title>
<polygon fill="none" stroke="black" points="728,-55.5 728,-91.5 960,-91.5 960,-55.5 728,-55.5"/>
<text text-anchor="middle" x="741" y="-69.8" font-family="Times,serif" font-size="14.00">d</text>
<polyline fill="none" stroke="black" points="754,-55.5 754,-91.5 "/>
<text text-anchor="middle" x="805" y="-69.8" font-family="Times,serif" font-size="14.00">data 4.0000</text>
<polyline fill="none" stroke="black" points="856,-55.5 856,-91.5 "/>
<text text-anchor="middle" x="908" y="-69.8" font-family="Times,serif" font-size="14.00">grad 0.0000</text>
</g>
<!-- 133737831775632&#45;&gt;133737831763984* -->
<g id="edge7" class="edge">
<title>133737831775632&#45;&gt;133737831763984*</title>
<path fill="none" stroke="black" d="M959.1,-55.45C968.88,-53.9 978.21,-52.43 986.54,-51.11"/>
<polygon fill="black" stroke="black" points="987.19,-54.55 996.52,-49.53 986.1,-47.64 987.19,-54.55"/>
</g>
<!-- 133737831775632+&#45;&gt;133737831775632 -->
<g id="edge3" class="edge">
<title>133737831775632+&#45;&gt;133737831775632</title>
<path fill="none" stroke="black" d="M692.12,-73.5C699.53,-73.5 708.14,-73.5 717.4,-73.5"/>
<polygon fill="black" stroke="black" points="717.69,-77 727.69,-73.5 717.69,-70 717.69,-77"/>
</g>
<!-- 133737831763920 -->
<g id="node10" class="node">
<title>133737831763920</title>
<polygon fill="none" stroke="black" points="730,-0.5 730,-36.5 958,-36.5 958,-0.5 730,-0.5"/>
<text text-anchor="middle" x="741" y="-14.8" font-family="Times,serif" font-size="14.00">f</text>
<polyline fill="none" stroke="black" points="752,-0.5 752,-36.5 "/>
<text text-anchor="middle" x="803" y="-14.8" font-family="Times,serif" font-size="14.00">data 2.0000</text>
<polyline fill="none" stroke="black" points="854,-0.5 854,-36.5 "/>
<text text-anchor="middle" x="906" y="-14.8" font-family="Times,serif" font-size="14.00">grad 0.0000</text>
</g>
<!-- 133737831763920&#45;&gt;133737831763984* -->
<g id="edge6" class="edge">
<title>133737831763920&#45;&gt;133737831763984*</title>
<path fill="none" stroke="black" d="M958.1,-35.75C968.21,-37.3 977.86,-38.77 986.46,-40.08"/>
<polygon fill="black" stroke="black" points="985.97,-43.54 996.38,-41.59 987.02,-36.62 985.97,-43.54"/>
</g>
</g>
</svg>
